<svg width="734" height="640" viewBox="0 0 734 640" fill="none" xmlns="http://www.w3.org/2000/svg" xmlns:xlink="http://www.w3.org/1999/xlink">
<rect width="734" height="640" fill="url(#pattern0)"/>
<defs>
<pattern id="pattern0" patternContentUnits="objectBoundingBox" width="1" height="1">
<use xlink:href="#image0" transform="translate(-0.00408719) scale(0.0013624 0.0015625)"/>
</pattern>
<image id="image0" width="740" height="640" xlink:href="image/home.png"/>
</defs>
<path d="M225 533L445.8 541L515 527.3V549L446.5 568.7L225 557.7V533Z" fill="#3595F6" fill-opacity="0.75"/>
<path d="M226 532V507L446.3 510.3L516 507V527L446.7 540L226 532Z" fill="#3595F6" fill-opacity="0.75"/>
<path d="M226 506V481H447H516V504L448 511L226 506Z" fill="#3595F6" fill-opacity="0.75"/>
<path d="M226 482V457L447.3 453.3L515 460V482H447" fill="#3595F6" fill-opacity="0.75"/>
<path d="M226 456V430L447.5 426.7L516 437.7V459L447 452.3L226 456Z" fill="#3595F6" fill-opacity="0.75"/>
<path d="M225 429V405.3L446 393L517 416V437.3L446 425L225 429Z" fill="#3595F6" fill-opacity="0.75"/>
<path d="M225 407V382L447.2 365.7L517 394.3V415L446.7 393.3L225 407Z" fill="#3595F6" fill-opacity="0.75"/>
<path d="M225 382V357L447.5 336.7L517 373.3V394L445 365.3L225 382Z" fill="#3595F6" fill-opacity="0.75"/>
<path d="M225 362V338L448 313.3L517 357.3V379L447.7 341L225 362Z" fill="#3595F6" fill-opacity="0.75"/>
<path d="M225 337V313L447.5 284.3L517 335.3V356L446.7 313.7L225 337Z" fill="#3595F6" fill-opacity="0.75"/>
<path d="M224 313V289L446.3 256L517 315.3V335L447 284.3L224 313Z" fill="#3595F6" fill-opacity="0.75"/>
<path d="M225 288V264L446.2 229L516 293V314L447.3 255.7L225 288Z" fill="#3595F6" fill-opacity="0.75"/>
<path d="M225 264V239L447.3 201L516 271.3V292L447 228L225 264Z" fill="#3595F6" fill-opacity="0.75"/>
<path d="M225 238V213L445.8 169.3L516 248.3V271L447 197.7L225 238Z" fill="#3595F6" fill-opacity="0.75"/>
<path d="M226 214V189L446 141L516 226V249L445.3 169.7L226 214Z" fill="#3595F6" fill-opacity="0.75"/>
<path d="M225 189V164L444.8 112L516 204.3V227L446.3 140.7L225 189Z" fill="#3595F6" fill-opacity="0.75"/>
<path d="M225 164V138L447 81.3L516 183V204L446.7 112.3L225 164Z" fill="#3595F6" fill-opacity="0.75"/>

</svg>
